<?xml version="1.0" encoding="UTF-8"?>
<svg width="265px" height="98px" viewBox="0 0 265 98" version="1.1" xmlns="http://www.w3.org/2000/svg" xmlns:xlink="http://www.w3.org/1999/xlink">
    <!-- Generator: Sketch 48 (47235) - http://www.bohemiancoding.com/sketch -->
    <title>Shape</title>
    <desc>Created with Sketch.</desc>
    <defs></defs>
    <g id="newmos-1440-v3" stroke="none" stroke-width="1" fill="none" fill-rule="evenodd" transform="translate(-411.000000, -1349.000000)">
        <g id="Group-6-Copy-2" transform="translate(384.000000, 1287.000000)" fill="#FFFFFF" fill-rule="nonzero">
            <g id="bg_christmas17_18">
                <g id="chrlogo" transform="translate(27.641196, 62.638767)">
                    <path d="M242.060266,47.6788146 C247.468563,47.6788146 252.307566,44.2998054 252.355007,37.889626 L249.745741,37.889626 C249.650859,42.4612266 246.235092,45.2439402 242.060266,45.2439402 C237.980323,45.2439402 234.279909,42.4612266 234.279909,37.5417868 C234.279909,37.2436389 234.279909,36.8461085 234.32735,36.5479606 C235.560821,37.1442563 236.984058,37.4920955 238.454735,37.4920955 C241.396089,37.4920955 244.479767,35.653517 244.479767,32.2745077 C244.479767,29.789942 242.771884,27.6035242 239.403559,27.6035242 C234.991527,27.6035242 231.623201,31.8769771 231.623201,37.5914781 C231.623201,38.3865392 231.670643,39.1319089 231.812966,39.8772785 C231.385995,40.423883 230.76926,41.1692525 229.772995,41.1692525 C228.776729,41.1692525 228.254876,40.4735743 228.254876,39.1816002 L228.254876,28.19982 L225.598169,28.19982 L225.598169,38.1877739 C224.649345,40.0760438 223.415873,41.1692525 221.992637,41.1692525 C220.569401,41.1692525 219.810342,40.2251178 219.810342,38.0883913 L219.810342,28.2495113 L217.201076,28.2495113 L217.201076,38.7343784 C217.201076,41.7158571 218.766635,43.7035097 221.802872,43.7035097 C223.700521,43.7035097 225.028874,42.7593749 226.02514,41.5667832 C226.689316,42.8587573 227.827905,43.7035097 229.488347,43.7035097 C230.76926,43.7035097 231.765525,43.2065966 232.524584,42.4115356 C234.374791,45.9396187 238.075205,47.6788146 242.060266,47.6788146 Z M239.749811,30.1129355 C241.356848,30.1129355 242.311027,31.0125358 242.311027,32.2909151 C242.311027,34.1848104 240.40267,35.1317581 238.343654,35.1317581 C236.987717,35.1317581 235.73222,34.8003265 234.778041,34.3268526 C235.63178,31.7700939 237.489916,30.1129355 239.749811,30.1129355 Z M262.961011,55.2070485 L260.039753,56.4314362 C260.477942,57.3619706 260.624005,58.292505 260.624005,59.1250886 C260.624005,62.7002998 258.189624,64.365467 255.024928,64.365467 C253.856425,64.365467 252.687922,64.0226384 251.665482,63.2880061 C250.69173,60.839231 248.987663,59.0271374 246.845407,58.0476273 L244.654464,60.1045987 C245.628217,62.4554225 247.088846,64.1695649 248.695537,65.344977 C249.036351,66.4224379 249.279789,67.6468252 249.279789,68.9691638 C249.279789,75.0421257 246.16378,78.5683617 241.246331,78.5683617 C236.328881,78.5683617 233.26156,75.0421257 233.26156,68.9691638 C233.26156,62.9451775 236.280193,59.1250886 242.025333,59.5168924 L242.025333,56.2845097 C234.284,55.7457791 229.756051,61.1820595 229.756051,68.9201882 C229.756051,76.6583173 234.186625,81.555867 241.148955,81.555867 C248.159973,81.555867 252.493172,76.5603664 252.493172,68.9201882 C252.493172,68.3324823 252.444484,67.6958008 252.395796,67.108095 C253.320861,67.3529723 254.197238,67.4509235 254.976241,67.4509235 C260.088441,67.4509235 263.59395,64.071614 263.59395,59.1250886 C263.7887,57.80275 263.496574,56.3824606 262.961011,55.2070485 Z M188.054051,15.228625 L194.010449,12.1035326 L194.338754,21.329996 L196.214785,21.329996 L196.54309,12.1035326 L202.452587,15.228625 L203.390603,13.4924626 L197.809411,9.7225098 L203.390603,5.95255702 L202.452587,4.21639454 L196.589991,7.34148698 L196.261686,0 L194.385655,0 L193.963548,7.34148698 L188.00715,4.21639454 L187.069135,5.95255702 L192.650326,9.7225098 L187.069135,13.4924626 L188.054051,15.228625 Z M67.7968676,55.2070485 C60.8433429,55.2070485 56.4973897,60.1675127 56.4973897,67.7541049 C56.4973897,75.437961 60.891631,80.3011614 67.7968676,80.3011614 C74.7021041,80.3011614 79.0963455,75.3406971 79.0963455,67.7541049 C79.0963455,60.0702485 74.7021041,55.2070485 67.7968676,55.2070485 Z M67.1691186,77.7917501 C62.1930612,77.7917501 59.0083847,74.3299328 59.0083847,68.3814575 C59.0083847,62.3842246 62.1433005,58.9711654 67.1691186,58.9711654 C72.1949367,58.9711654 75.3298529,62.4329827 75.3298529,68.3814575 C75.2303314,74.2811746 72.145176,77.7917501 67.1691186,77.7917501 Z M19.8460983,69.6361634 C22.0883257,68.188426 23.3764139,66.2098519 23.3764139,64.1347617 C23.3764139,61.335803 21.4681352,59.7432919 18.7488381,59.7432919 C14.1689692,59.7432919 10.6386536,64.038246 9.87534217,69.0570686 C5.29547336,68.5262314 2.81471106,65.8720465 2.81471106,62.3974769 C2.81471106,59.4537445 4.72298975,56.7030435 8.30101227,56.5100117 L8.30101227,53.9523428 C3.72114343,53.9523428 0,57.523428 0,62.4457349 C0,67.1750101 3.29178072,70.9873847 9.63680735,71.6147375 C9.87534217,77.309171 13.2625368,80.3011614 17.6992848,80.3011614 C21.3250143,80.3011614 23.8534835,77.9847818 23.8534835,74.8480177 C23.9011905,72.1455747 22.1837397,70.4082899 19.8460983,69.6361634 Z M18.2727836,62.7352823 C19.4526488,62.7352823 20.0879608,63.4026788 20.0879608,64.3815274 C20.0879608,66.9621276 16.729883,68.7863448 12.5549755,69.0088106 C13.144908,65.8053068 15.3685001,62.7352823 18.2727836,62.7352823 Z M17.8376701,77.7917501 C14.7641023,77.7917501 12.6990489,75.7159504 12.5549755,72.0717684 C13.9476859,72.0256394 15.2443473,71.8411241 16.4449597,71.5182219 C18.894209,71.6104795 21.3434583,72.6253149 21.3434583,75.0701459 C21.2474093,76.7307857 19.7586499,77.7917501 17.8376701,77.7917501 Z M61.3025714,52.6763278 C71.3775247,52.6763278 76.5853504,45.9229085 76.5853504,38.1006031 C76.5853504,26.2456804 66.4617262,20.0752903 53.4178257,20.0752903 C34.0466599,20.0752903 21.3434583,32.4160705 21.3434583,47.0889666 C21.3434583,56.07733 26.0159003,61.3245908 32.7325356,61.3245908 C38.3297318,61.3245908 42.320776,57.8264169 42.320776,51.4616838 C42.320776,50.0526971 42.0774198,48.7408822 42.0287483,48.5465391 L38.6704307,48.5465391 C38.7677732,49.3239111 38.9624583,50.2956261 38.9624583,51.4616838 C38.9624583,55.7858155 36.4315522,58.02076 32.7812069,58.02076 C27.8167373,58.02076 24.9938036,53.8423855 24.9938036,47.0889666 C24.9938036,35.5741441 34.5820439,23.4762927 53.3691543,23.4762927 C65.4883008,23.4762927 72.886334,29.2579968 72.886334,38.1006031 C72.886334,44.7082649 68.6032623,49.3239111 61.4972567,49.3239111 C57.7982398,49.3239111 53.3691543,47.8177526 50.8869195,44.3195787 C50.9355909,40.3841332 50.9355909,36.9831309 49.2807678,32.4646562 L45.92245,32.901928 C45.4357371,37.3718169 45.92245,41.1129196 47.4312593,44.7082649 L47.4312593,75.7059723 C47.4312593,84.6457502 43.8295853,87.9495811 38.8164445,87.9495811 C34.3386876,87.9495811 30.9803699,85.277365 30.9803699,80.6617188 C30.9803699,76.3375875 33.9493174,73.4224424 38.2810605,73.4224424 C39.4978423,73.4224424 40.519939,73.7139568 41.2986792,73.9568858 L42.0774198,70.6530545 C41.0553229,70.3129546 39.5465135,70.0700257 38.2323892,70.0700257 C31.7591102,70.0700257 27.4273671,74.5885005 27.4273671,80.7588905 C27.4273671,87.4637236 32.440508,91.5935122 38.8164445,91.5935122 C46.0684638,91.5935122 51.0329333,86.5405944 51.0329333,75.8517299 L50.9842623,49.2267397 C53.9532096,51.4130983 57.5062126,52.6763278 61.3025714,52.6763278 Z M218.998407,64.018069 C223.772783,62.3204507 226.376988,59.216235 226.376988,55.5784822 C226.376988,51.407192 223.435201,49.2730439 219.335989,49.2730439 C212.150312,49.2730439 206.84545,56.8395698 205.880929,64.0665721 L196.766212,75.3193544 L196.766212,54.2203875 C200.527841,54.1233809 204.241245,53.6383472 207.665292,52.6197766 L206.893676,49.8550842 C203.228498,50.8736552 198.743479,51.3586889 195.174753,51.3586889 C191.606028,51.3586889 187.169234,50.9221583 183.455831,49.8550842 L182.684214,52.6197766 C186.108262,53.6383472 189.821665,54.1233809 193.583294,54.2203875 L193.583294,66.3947342 C191.316672,74.494797 185.915357,77.4535029 180.706947,77.4535029 C174.389339,77.4535029 170.097223,73.5247299 170.097223,67.7528284 C170.097223,61.4958937 174.099983,58.4401811 177.909838,58.4401811 C180.610496,58.4401811 182.443084,59.9437854 182.443084,62.4659608 C182.443084,64.6971159 180.755174,66.7342575 178.00629,66.7342575 L178.00629,69.8384735 C182.635988,69.8384735 185.722454,66.3462307 185.722454,62.4174577 C185.722454,57.9066439 182.394858,55.3359651 177.813386,55.3359651 C171.399326,55.3359651 166.673176,60.4288192 166.673176,67.7528284 C166.673176,69.3049363 166.914306,70.7600375 167.34834,72.0211251 C165.033491,75.5133679 161.561218,77.4535029 157.076198,77.4535029 C151.674884,77.4535029 147.575672,74.3492869 146.852282,69.4019433 C153.121664,71.633098 162.284608,70.3235072 162.284608,62.4659608 C162.284608,57.9551474 158.957013,55.3844686 154.568445,55.3844686 C148.781323,55.3844686 144.199851,59.6527653 143.524686,66.1522171 C141.547419,66.7342575 139.039667,67.6073184 136.387236,68.7228959 L136.387236,61.3018801 C136.387236,55.7239922 137.882242,53.2503204 142.02968,53.5413406 L142.02968,50.5341315 C136.339009,50.1946079 133.879483,53.1048103 133.348996,57.8581408 C131.85399,56.2575295 129.635593,55.3359651 126.790258,55.3359651 C120.762005,55.3359651 116.566342,59.8467789 116.566342,67.5103118 C116.566342,70.5660239 117.289732,73.1852062 118.543609,75.1738443 C117.337958,76.3864284 115.601821,77.4535029 113.142294,77.4535029 C108.94663,77.4535029 106.149522,74.2037768 106.149522,69.2079297 C106.149522,67.8983385 106.390652,66.6857544 106.728234,65.4731698 C109.814699,63.6300418 112.46713,60.8168463 113.91391,57.4701136 L112.322452,55.7724957 C108.994857,56.9850799 105.860165,59.9437854 104.172255,63.6300418 C102.629022,64.4545992 100.892885,64.939633 99.1567485,65.1821496 L99.1567485,48.9335202 L95.8773792,48.9335202 L95.8773792,65.1821496 C94.1412427,64.9881361 92.4051057,64.4545992 90.8618734,63.6300418 C89.1739627,59.9437854 86.0874972,57.0335834 82.7116761,55.7724957 L81.1202172,57.4701136 C82.566998,60.8168463 85.171203,63.6300418 88.3058942,65.4731698 C88.7399284,66.6372509 88.8846065,67.8983385 88.8846065,69.2079297 C88.8846065,74.2037768 86.0874972,77.4535029 82.1329638,77.4535029 C80.9273134,77.4535029 79.8663411,77.2109858 79.0464988,76.7259521 L77.840848,79.3936375 C79.2876288,80.1211883 80.5897311,80.4122085 82.2776418,80.4122085 C88.016538,80.4122085 92.0675238,76.1439118 92.0675238,69.2079297 C92.0675238,68.5288824 92.0192977,67.8013319 91.8746196,67.1707881 C93.1767223,67.6073184 94.5270508,67.8983385 95.8773792,68.0923521 L95.8773792,80.0726848 L99.1567485,80.0726848 L99.1567485,68.0923521 C100.555303,67.9953451 101.857406,67.6558219 103.159508,67.1707881 C103.063056,67.849835 102.966604,68.4803789 102.966604,69.2079297 C102.966604,76.1439118 107.01759,80.4122085 113.094068,80.4122085 C116.662794,80.4122085 119.025869,78.9571072 120.569101,77.4049994 C121.292492,77.9870398 122.064108,78.4720735 122.88395,78.8601007 C121.6783,80.8002356 120.954909,82.8858803 120.954909,85.1655389 C120.954909,89.6278492 123.752019,92.5865548 128.140586,92.5865548 C133.686579,92.5865548 136.531914,88.6092782 136.531914,81.3337725 L136.531914,72.0696286 C139.039667,70.8570441 141.065159,70.0809902 143.572913,69.3049363 C144.248077,76.2894219 149.986973,80.4122085 157.17265,80.4122085 C163.200902,80.4122085 166.914306,77.502006 169.036251,75.0768377 C171.495778,78.520577 175.739667,80.4122085 180.755174,80.4122085 C186.638748,80.4122085 190.979089,77.4535029 193.631521,73.3792194 L193.631521,96.6123348 L196.862664,96.6123348 L196.862664,80.1211883 L205.977381,68.9169095 C206.700772,75.7073815 210.655305,80.460712 217.98566,80.460712 C223.628105,80.460712 227.245056,77.0169723 227.245056,72.2636418 C227.100378,68.2378622 224.206817,64.842626 218.998407,64.018069 Z M133.08274,82.0331171 C133.08274,87.4868527 131.540081,90.3388066 128.174279,90.3388066 C125.977158,90.3388066 124.294257,88.7377099 124.294257,85.9357904 C124.294257,81.1324999 127.847048,77.1797922 133.035993,74.0276332 L133.08274,82.0331171 Z M134.2882,70.5076751 C131.085771,72.0743617 127.883343,74.1158018 125.531559,76.5370445 C122.379169,75.5875374 120.527765,72.6440657 120.527765,67.9440064 C120.527765,62.0570631 123.530041,58.9711654 127.683191,58.9711654 C131.285923,58.9711654 133.53763,60.7752285 134.338238,64.5257812 L134.2882,70.5076751 Z M154.851288,58.9711654 C157.569885,58.9711654 159.448189,60.5081403 159.448189,62.957694 C159.448189,68.7213505 150.995823,68.3851372 146.893213,66.6080097 C147.486362,61.4207191 151.440685,58.9711654 154.851288,58.9711654 Z M219.734175,52.6976372 C222.068339,52.6976372 223.478564,53.9910342 223.478564,56.0803678 C223.478564,60.5077654 217.886294,63.5422737 209.66809,63.989988 C210.737916,58.8661461 214.287791,52.6976372 219.734175,52.6976372 Z M218.717456,77.7917501 C213.483499,77.7917501 209.717006,74.3854977 209.66809,66.9972892 C215.880358,65.7019538 224.734061,66.7094366 224.734061,72.7063594 C224.685145,75.6328576 222.532864,77.7917501 218.717456,77.7917501 Z M87.0340737,28.8881433 C87.7072408,28.8881433 88.4284914,28.8881433 89.1016584,28.8399494 L89.1016584,43.105371 C89.1016584,46.9126964 87.8034078,48.8404558 85.1588225,48.8404558 C83.1874044,48.8404558 81.9853203,47.587412 81.9853203,45.9006224 C81.9853203,43.9728626 83.4759046,42.5752369 85.8800731,42.8644008 L85.8800731,40.0691494 C81.7449036,39.7317914 79.1484019,42.4788491 79.1484019,45.8042346 C79.1484019,49.0332318 81.55257,51.4429315 85.1588225,51.4429315 C89.149742,51.4429315 91.8904938,48.792262 91.8904938,42.6716251 L91.8904938,28.4543974 C93.861912,28.1170395 95.8333297,27.4423236 97.5162476,26.4302498 L97.5162476,36.791958 C97.5162476,40.5992834 99.3434157,42.4788491 102.324584,42.4788491 C104.103669,42.4788491 105.594253,41.6595511 106.55592,40.2137313 C106.892504,40.5510893 107.277171,40.7920591 107.709921,41.0330293 C106.892504,42.2378789 106.41167,43.5391168 106.41167,45.0331303 C106.41167,47.6838002 108.142672,49.5151718 111.12384,49.5151718 C114.441593,49.5151718 116.509177,47.105472 116.509177,42.768013 L116.509177,37.4184799 C118.240178,36.647376 120.067346,35.9726601 122.038764,35.3943322 L122.038764,46.1415922 L124.587183,46.1415922 L124.587183,42.3342671 L129.251269,36.69557 C130.212937,40.2619254 133.386439,42.3824609 137.473525,42.3824609 C140.26236,42.3824609 142.378028,41.3221931 143.868612,40.0691494 C144.445613,41.4667751 145.791947,42.3824609 147.763365,42.3824609 C149.205866,42.3824609 150.504117,41.8041331 151.465784,40.6956713 C152.187035,41.7077453 153.292952,42.3824609 154.97587,42.3824609 C156.418371,42.3824609 157.716622,41.8041331 158.678289,40.6956713 C159.39954,41.7077453 160.505457,42.3824609 162.092208,42.3824609 C163.678959,42.3824609 165.26571,41.5631633 166.371628,40.0691494 C167.910296,41.5631633 170.12213,42.3824609 172.670549,42.3824609 C175.940218,42.3824609 178.344386,40.8884473 179.786887,39.3462395 C181.277471,41.3221931 183.729723,42.3824609 186.518558,42.3824609 C189.499727,42.3824609 192.384729,41.0812234 194.308064,38.1895837 L194.308064,46.1415922 L196.808398,46.1415922 L196.808398,42.3824609 L202.434152,35.8280781 C203.155403,40.0691494 206.088488,42.4788491 210.031324,42.4788491 C213.589493,42.4788491 215.945578,40.0691494 215.945578,37.1775099 C215.945578,34.5268404 214.26266,32.7436627 211.521908,32.2135288 C213.97416,31.2014549 215.464745,29.2736953 215.464745,27.0085777 C215.464745,24.4542961 213.68566,22.8638944 210.800658,22.8638944 C206.376988,22.8638944 202.914986,27.0567717 202.386069,32.3581107 L196.904565,38.8161056 L196.904565,26.2856678 C198.97215,26.1892798 201.376318,25.8037279 203.155403,25.129012 L202.386069,22.9120884 C200.366568,23.6349983 197.962399,23.9723562 195.702481,23.9723562 C193.394479,23.9723562 191.038395,23.6349983 189.018893,22.9120884 L188.249559,25.129012 C190.028644,25.8037279 192.432812,26.1410858 194.500397,26.2856678 L194.500397,32.6954687 C193.346396,37.3702859 190.365227,39.9245674 186.710892,39.9245674 C183.393139,39.9245674 181.037054,37.7076438 181.037054,34.4304524 C181.037054,31.2014549 182.960389,29.1773073 185.460724,29.1773073 C186.951308,29.1773073 187.768726,29.9484112 187.768726,31.105067 C187.768726,32.3099168 186.758975,33.0328266 185.556891,33.0328266 L185.556891,35.4907202 C188.105309,35.4907202 190.365227,33.7075425 190.365227,31.056873 C190.365227,28.3098154 188.057226,26.8158017 185.316474,26.8158017 C181.325555,26.8158017 178.392469,30.1411871 178.392469,34.4786464 C178.392469,35.4425262 178.488636,36.3100181 178.825219,37.1293159 C177.623135,38.6233296 175.651718,40.0209553 172.862882,40.0209553 C169.641297,40.0209553 167.381379,38.2377777 166.948628,35.3461382 C168.006462,35.8762721 169.25663,36.1172421 170.699131,36.1172421 C173.391799,36.1172421 176.324885,34.6232284 176.324885,31.3942309 C176.324885,28.8881433 174.497717,26.8639957 171.276131,26.8639957 C167.285212,26.8639957 164.352126,30.1893811 164.352126,34.5268404 C164.352126,35.8280781 164.592543,37.0329279 165.073377,38.0450017 C164.40021,39.2980455 163.342376,40.0209553 162.380708,40.0209553 C161.322874,40.0209553 160.697791,39.3462395 160.697791,38.0931957 L160.697791,27.4423236 L158.053206,27.4423236 L158.053206,37.6112558 C157.524289,39.2016576 156.322204,40.0691494 155.312454,40.0691494 C154.11037,40.0691494 153.485286,39.4908215 153.485286,37.7558378 L153.485286,27.4905176 L150.8407,27.4905176 L150.8407,37.6594498 C150.311783,39.2498516 149.109699,40.1173435 148.099949,40.1173435 C146.897865,40.1173435 146.272781,39.5390155 146.272781,37.8040318 L146.272781,27.5387116 L143.628196,27.5387116 L143.628196,37.1775099 C142.426112,38.6715236 140.454693,40.1173435 137.617775,40.1173435 C134.396189,40.1173435 132.136271,38.3341657 131.703521,35.4425262 C132.761355,35.9726601 134.011522,36.2136301 135.454024,36.2136301 C138.146692,36.2136301 141.079777,34.7196163 141.079777,31.4906189 C141.079777,28.9845313 139.252609,26.9603837 136.031024,26.9603837 C132.376688,26.9603837 129.587853,29.7556352 129.155102,33.5147665 L124.683349,38.9124936 L124.683349,26.4302498 C126.750934,26.3338618 129.107019,25.9483098 130.886104,25.273594 L130.11677,23.0566704 C128.097268,23.7795802 125.6931,24.1169382 123.433182,24.1169382 C121.12518,24.1169382 118.769095,23.7795802 116.749594,23.0566704 L115.98026,25.273594 C117.759345,25.9483098 120.163513,26.2856678 122.183014,26.4302498 L122.183014,33.2256026 C120.884764,33.5629605 118.865262,34.1894824 116.653428,35.0569743 L116.653428,27.5387116 L114.105009,27.5387116 L114.105009,36.2618241 C112.518258,37.0811219 110.883424,38.0450017 109.585172,39.2498516 C108.575422,38.9124936 108.046505,37.9486138 108.046505,36.791958 L108.046505,27.5387116 L105.40192,27.5387116 L105.40192,36.647376 C105.40192,36.93654 105.40192,37.1775099 105.450003,37.4184799 C104.921086,39.2016576 103.959419,40.1173435 102.709251,40.1173435 C101.170583,40.1173435 100.497416,39.1052696 100.497416,36.93654 L100.497416,23.7795802 L98.477915,22.8638944 C97.0834973,24.4542961 94.9197459,25.5627579 92.2270776,26.0928918 L92.2270776,20.8879407 L89.4382422,20.8879407 L89.4382422,26.3338618 C88.7650751,26.3820558 88.0438245,26.3820558 87.3706574,26.3820558 C82.7546544,26.3820558 79.4849852,24.98443 79.4849852,22.3819545 C79.4849852,19.393927 83.6682382,17.4179734 91.2173267,17.4179734 C99.3434157,17.4179734 105.305753,19.8276729 105.450003,24.7916541 L108.094588,24.7916541 C108.094588,18.0444952 100.737833,15.0564678 91.2173267,15.0564678 C81.7449036,15.0564678 76.5999832,17.9481073 76.5999832,22.4783425 C76.2633999,27.3459356 81.7929871,28.8881433 87.0340737,28.8881433 Z M210.201677,26.3488186 C211.378706,26.3488186 212.179086,26.9023652 212.179086,28.1017162 C212.179086,29.5778405 211.002057,31.9765424 204.6461,32.6223468 C205.211074,29.347196 207.329726,26.3488186 210.201677,26.3488186 Z M213.434583,37.2565805 C213.434583,38.9929807 211.859768,40.1505807 209.98015,40.1505807 C206.72892,40.1505807 204.747702,37.9318473 204.6461,34.1696468 C211.758167,33.06028 213.434583,35.327247 213.434583,37.2565805 Z M170.98421,30.1129355 C172.39437,30.1129355 173.258662,31.0859726 173.258662,32.4687094 C173.258662,34.0562961 172.257903,35.1317581 169.983451,35.1317581 C168.891714,35.1317581 167.799976,34.8244832 166.981174,34.363571 C167.390575,31.8029472 169.028181,30.1129355 170.98421,30.1129355 Z M135.830278,30.1129355 C137.240439,30.1129355 138.10473,31.0859726 138.10473,32.4687094 C138.10473,34.0562961 137.103971,35.1317581 134.829519,35.1317581 C133.737782,35.1317581 132.646045,34.8244832 131.827243,34.363571 C132.236644,31.8029472 133.874249,30.1129355 135.830278,30.1129355 Z M112.994779,38.8958751 L112.994779,43.3378217 C112.994779,45.9626082 111.96084,47.6788146 110.188373,47.6788146 C108.760552,47.6788146 107.972789,46.8207116 107.972789,45.4073647 C108.071259,42.984485 110.040667,40.7130351 112.994779,38.8958751 Z" id="Shape"></path>
                </g>
            </g>
        </g>
    </g>
</svg>