<?xml version="1.0" encoding="UTF-8"?>
<svg width="18px" height="18px" viewBox="0 0 18 18" version="1.1" xmlns="http://www.w3.org/2000/svg" xmlns:xlink="http://www.w3.org/1999/xlink">
    <!-- Generator: Sketch 47.1 (45422) - http://www.bohemiancoding.com/sketch -->
    <title>Search_icon_black</title>
    <desc>Created with Sketch.</desc>
    <defs></defs>
    <g id="Responsive" stroke="none" stroke-width="1" fill="none" fill-rule="evenodd">
        <g id="newmos-768-v2" transform="translate(-21.000000, -74.000000)" stroke="#333333" fill="#333333">
            <g id="Group-20" transform="translate(22.000000, 72.000000)">
                <g id="Search_icon_black" transform="translate(0.000000, 3.000000)">
                    <path d="M6.8904,13.784 C5.0496,13.784 3.32,13.0672 2.02,11.7664 C0.7168,10.4648 0,8.7328 0,6.8904 C0.0032,5.0504 0.7168,3.3176 2.0184,2.0192 C3.32,0.7168 5.0504,0 6.8904,0 C8.7296,0 10.4576,0.7168 11.7592,2.0192 C14.4448,4.7064 14.4448,9.0776 11.7592,11.7664 C10.4592,13.0672 8.7296,13.784 6.8904,13.784 M6.8904,1.372 C5.4152,1.372 4.0312,1.9456 2.9888,2.9888 C1.9464,4.0312 1.3736,5.4168 1.3736,6.8904 C1.3736,8.3664 1.9464,9.7552 2.9888,10.7936 C4.0312,11.8392 5.4152,12.412 6.8904,12.412 C8.3624,12.412 9.748,11.8384 10.7888,10.7952 C12.9416,8.6424 12.9416,5.1392 10.7904,2.988 C9.7488,1.9456 8.3624,1.372 6.8904,1.372" id="Shape"></path>
                    <rect id="Rectangle-path" transform="translate(13.208895, 13.217471) rotate(45.024309) translate(-13.208895, -13.217471) " x="10.472121" y="12.5318772" width="5.473548" height="1.37118697"></rect>
                </g>
            </g>
        </g>
    </g>
</svg>